<mxfile host="app.diagrams.net" modified="2023-05-28T06:54:10.827Z" agent="Mozilla/5.0 (Macintosh; Intel Mac OS X 10_15_7) AppleWebKit/537.36 (KHTML, like Gecko) Chrome/112.0.0.0 Safari/537.36" etag="QztYqWryHkIRfhsxJXyA" version="21.3.0" type="device">
  <diagram name="第 1 页" id="47O4QhbLwSWkzGiUaqdh">
    <mxGraphModel dx="902" dy="521" grid="1" gridSize="10" guides="1" tooltips="1" connect="1" arrows="1" fold="1" page="1" pageScale="1" pageWidth="3300" pageHeight="4681" math="0" shadow="0">
      <root>
        <mxCell id="0" />
        <mxCell id="1" parent="0" />
        <mxCell id="zqpCM7zFi_tlRkKwwP7t-1" value="BaseObject" style="swimlane;fontStyle=1;align=center;verticalAlign=top;childLayout=stackLayout;horizontal=1;startSize=26;horizontalStack=0;resizeParent=1;resizeParentMax=0;resizeLast=0;collapsible=1;marginBottom=0;whiteSpace=wrap;html=1;" parent="1" vertex="1">
          <mxGeometry x="310" y="230" width="160" height="52" as="geometry" />
        </mxCell>
        <mxCell id="zqpCM7zFi_tlRkKwwP7t-2" value="-&amp;nbsp;persistent_handle_" style="text;strokeColor=#6c8ebf;fillColor=#dae8fc;align=center;verticalAlign=top;spacingLeft=4;spacingRight=4;overflow=hidden;rotatable=0;points=[[0,0.5],[1,0.5]];portConstraint=eastwest;whiteSpace=wrap;html=1;" parent="zqpCM7zFi_tlRkKwwP7t-1" vertex="1">
          <mxGeometry y="26" width="160" height="26" as="geometry" />
        </mxCell>
        <mxCell id="zqpCM7zFi_tlRkKwwP7t-3" value="V8::Object" style="swimlane;fontStyle=1;align=center;verticalAlign=top;childLayout=stackLayout;horizontal=1;startSize=26;horizontalStack=0;resizeParent=1;resizeParentMax=0;resizeLast=0;collapsible=1;marginBottom=0;whiteSpace=wrap;html=1;" parent="1" vertex="1">
          <mxGeometry x="310" y="110" width="160" height="52" as="geometry" />
        </mxCell>
        <mxCell id="zqpCM7zFi_tlRkKwwP7t-4" value="内置字段" style="text;strokeColor=#6c8ebf;fillColor=#dae8fc;align=center;verticalAlign=top;spacingLeft=4;spacingRight=4;overflow=hidden;rotatable=0;points=[[0,0.5],[1,0.5]];portConstraint=eastwest;whiteSpace=wrap;html=1;" parent="zqpCM7zFi_tlRkKwwP7t-3" vertex="1">
          <mxGeometry y="26" width="160" height="26" as="geometry" />
        </mxCell>
        <mxCell id="zqpCM7zFi_tlRkKwwP7t-5" value="" style="curved=1;endArrow=classic;html=1;rounded=0;entryX=1;entryY=0.25;entryDx=0;entryDy=0;exitX=1;exitY=0.5;exitDx=0;exitDy=0;" parent="1" source="zqpCM7zFi_tlRkKwwP7t-2" target="zqpCM7zFi_tlRkKwwP7t-3" edge="1">
          <mxGeometry width="50" height="50" relative="1" as="geometry">
            <mxPoint x="470" y="390" as="sourcePoint" />
            <mxPoint x="520" y="340" as="targetPoint" />
            <Array as="points">
              <mxPoint x="500" y="270" />
              <mxPoint x="520" y="180" />
            </Array>
          </mxGeometry>
        </mxCell>
        <mxCell id="zqpCM7zFi_tlRkKwwP7t-6" value="存储 object 对象" style="edgeLabel;html=1;align=center;verticalAlign=middle;resizable=0;points=[];" parent="zqpCM7zFi_tlRkKwwP7t-5" vertex="1" connectable="0">
          <mxGeometry x="-0.4194" y="1" relative="1" as="geometry">
            <mxPoint y="-43" as="offset" />
          </mxGeometry>
        </mxCell>
        <mxCell id="zqpCM7zFi_tlRkKwwP7t-7" value="" style="curved=1;endArrow=classic;html=1;rounded=0;exitX=0;exitY=0.5;exitDx=0;exitDy=0;entryX=0;entryY=0.25;entryDx=0;entryDy=0;" parent="1" source="zqpCM7zFi_tlRkKwwP7t-4" target="zqpCM7zFi_tlRkKwwP7t-1" edge="1">
          <mxGeometry width="50" height="50" relative="1" as="geometry">
            <mxPoint x="430" y="200" as="sourcePoint" />
            <mxPoint x="480" y="150" as="targetPoint" />
            <Array as="points">
              <mxPoint x="280" y="180" />
              <mxPoint x="290" y="230" />
            </Array>
          </mxGeometry>
        </mxCell>
        <mxCell id="zqpCM7zFi_tlRkKwwP7t-8" value="指向 BaseObject 对象" style="edgeLabel;html=1;align=center;verticalAlign=middle;resizable=0;points=[];" parent="zqpCM7zFi_tlRkKwwP7t-7" vertex="1" connectable="0">
          <mxGeometry x="-0.1589" y="6" relative="1" as="geometry">
            <mxPoint y="10" as="offset" />
          </mxGeometry>
        </mxCell>
        <mxCell id="zqpCM7zFi_tlRkKwwP7t-23" value="." style="text;html=1;strokeColor=none;fillColor=none;align=center;verticalAlign=middle;whiteSpace=wrap;rounded=0;" parent="1" vertex="1">
          <mxGeometry x="600" y="330" width="60" height="30" as="geometry" />
        </mxCell>
      </root>
    </mxGraphModel>
  </diagram>
</mxfile>
